<?xml version="1.0" standalone="no"?>
<!DOCTYPE svg PUBLIC "-//W3C//DTD SVG 20010904//EN"
 "http://www.w3.org/TR/2001/REC-SVG-20010904/DTD/svg10.dtd">
<svg version="1.0" xmlns="http://www.w3.org/2000/svg"
 width="512.000000pt" height="512.000000pt" viewBox="0 0 512.000000 512.000000"
 preserveAspectRatio="xMidYMid meet">
<metadata>
Created by potrace 1.15, written by Peter Selinger 2001-2017
</metadata>
<g transform="translate(0.000000,512.000000) scale(0.100000,-0.100000)"
fill="#000000" stroke="none">
<path d="M2435 4861 c-22 -10 -52 -31 -66 -47 -15 -16 -107 -159 -204 -319
-204 -335 -249 -400 -323 -473 -93 -92 -168 -122 -575 -231 -235 -62 -262 -72
-293 -102 l-34 -33 2 -1280 3 -1280 69 -58 c75 -63 218 -163 281 -196 129 -68
323 -154 405 -180 113 -35 248 -68 255 -61 3 3 6 597 7 1321 l3 1315 -300 16
c-300 17 -300 17 -322 43 -13 14 -23 33 -23 42 0 29 20 89 33 100 7 6 113 27
236 47 l224 36 218 -101 c119 -55 223 -100 231 -100 25 1 48 27 47 56 0 16 -8
70 -18 119 -21 106 -23 103 82 104 l69 1 -6 28 c-9 46 -77 563 -78 599 -2 66
84 115 202 115 118 0 204 -49 202 -115 -1 -36 -69 -553 -78 -599 l-6 -28 69
-1 c105 -1 103 2 82 -104 -10 -49 -18 -103 -18 -119 -1 -29 22 -55 47 -56 8 0
112 45 231 100 l218 101 224 -36 c123 -20 229 -41 236 -47 13 -11 33 -71 33
-100 0 -9 -10 -28 -22 -42 -23 -26 -23 -26 -323 -43 l-300 -16 3 -1315 c1
-724 4 -1318 7 -1321 7 -7 142 26 255 61 82 26 276 112 405 180 63 33 206 133
281 196 l69 58 3 1280 2 1280 -34 33 c-31 30 -58 40 -293 102 -407 109 -482
139 -575 231 -74 73 -119 138 -323 473 -97 160 -189 303 -204 319 -44 48 -95
66 -191 66 -62 0 -96 -6 -125 -19z"/>
<path d="M2532 3178 c-22 -151 -22 -165 -22 -1398 0 -1230 0 -1247 22 -1393
12 -81 25 -147 28 -147 4 0 16 69 28 153 22 150 22 166 22 1392 0 1227 0 1242
-22 1393 -12 83 -25 152 -28 152 -3 0 -16 -69 -28 -152z"/>
</g>
</svg>
