<?xml version="1.0" standalone="no"?>
<!DOCTYPE svg PUBLIC "-//W3C//DTD SVG 20010904//EN"
 "http://www.w3.org/TR/2001/REC-SVG-20010904/DTD/svg10.dtd">
<svg version="1.0" xmlns="http://www.w3.org/2000/svg"
 width="512.000000pt" height="512.000000pt" viewBox="0 0 512.000000 512.000000"
 preserveAspectRatio="xMidYMid meet">
<metadata>
Created by potrace 1.15, written by Peter Selinger 2001-2017
</metadata>
<g transform="translate(0.000000,512.000000) scale(0.100000,-0.100000)"
fill="#000000" stroke="none">
<path d="M2435 4727 c-545 -287 -972 -812 -1143 -1408 -79 -274 -97 -413 -97
-764 0 -297 6 -370 47 -565 118 -567 424 -1056 877 -1404 159 -122 391 -256
442 -256 30 0 204 91 316 166 278 186 529 447 706 734 130 211 245 508 296
767 44 222 54 350 48 631 -5 241 -16 349 -53 516 -123 558 -427 1038 -873
1380 -162 124 -391 256 -443 256 -13 0 -68 -24 -123 -53z m193 -41 c413 -210
791 -597 997 -1021 183 -378 253 -717 242 -1180 -7 -281 -30 -439 -97 -671
-171 -585 -580 -1088 -1122 -1378 l-87 -47 -68 35 c-414 210 -792 597 -998
1021 -172 355 -245 683 -245 1110 0 194 8 296 36 465 117 704 557 1317 1187
1656 45 24 83 44 85 44 1 0 33 -15 70 -34z"/>
<path d="M2480 4599 c-464 -252 -835 -683 -1015 -1183 -164 -453 -188 -1019
-65 -1507 151 -598 549 -1112 1083 -1399 l77 -42 78 43 c484 265 860 715 1035
1239 172 516 165 1159 -18 1666 -158 436 -460 823 -845 1079 -85 57 -237 145
-250 145 -3 0 -39 -19 -80 -41z m163 -295 c40 -26 110 -77 157 -114 123 -98
336 -321 319 -333 -2 -2 -35 -16 -74 -32 -111 -45 -292 -139 -392 -204 l-93
-60 -101 64 c-112 71 -275 156 -384 200 -38 16 -72 30 -74 32 -16 11 181 220
299 317 89 73 240 176 258 176 8 0 46 -21 85 -46z m-751 -860 c508 -204 900
-584 1174 -1139 96 -195 162 -385 198 -565 44 -225 44 -214 -18 -312 -115
-184 -251 -342 -407 -473 -94 -79 -260 -195 -279 -195 -18 0 -147 86 -240 160
-104 83 -266 249 -342 351 -163 218 -275 458 -342 730 -80 330 -83 755 -6
1085 35 149 125 404 143 404 3 0 56 -21 119 -46z m1487 -16 c118 -261 184
-657 166 -994 l-7 -135 -43 95 c-129 286 -306 560 -514 791 -93 104 -96 89 37
162 74 40 305 142 325 143 5 0 21 -28 36 -62z"/>
<path d="M2494 4207 c-33 -23 -80 -58 -105 -77 -55 -42 -239 -221 -239 -231 0
-5 38 -26 85 -48 48 -22 140 -72 206 -111 l120 -71 101 62 c55 33 146 83 201
110 55 27 103 51 106 54 7 8 -132 147 -214 214 -78 64 -185 141 -194 140 -3 0
-33 -19 -67 -42z m154 -96 c44 -33 112 -90 151 -127 l72 -67 -108 -57 c-59
-31 -127 -68 -150 -83 -24 -15 -47 -27 -53 -27 -6 0 -29 12 -53 27 -23 14 -91
52 -150 83 l-108 57 72 67 c71 68 224 186 239 186 5 0 44 -27 88 -59z"/>
<path d="M1811 3362 c-15 -30 -59 -165 -80 -247 -87 -349 -86 -792 4 -1132 63
-240 179 -480 322 -666 105 -137 288 -310 439 -416 l62 -43 63 43 c200 134
398 338 534 548 l48 74 -7 69 c-30 325 -216 761 -464 1091 -197 261 -461 482
-737 617 -160 78 -173 82 -184 62z m158 -121 c134 -68 316 -192 431 -294 338
-300 612 -769 709 -1212 39 -183 40 -179 -24 -275 -80 -119 -150 -202 -258
-307 -87 -85 -248 -213 -267 -213 -18 0 -178 127 -262 208 -310 298 -495 672
-553 1115 -30 235 -15 569 36 787 26 114 68 240 80 240 5 0 54 -22 108 -49z"/>
<path d="M3200 3336 c-41 -18 -94 -43 -118 -55 l-44 -22 24 -29 c13 -16 51
-61 84 -102 77 -92 180 -238 247 -347 28 -47 53 -79 55 -72 6 18 -17 202 -39
311 -30 149 -97 350 -117 350 -10 0 -51 -15 -92 -34z m95 -128 c24 -74 68
-255 60 -246 -1 1 -43 57 -93 124 -49 66 -98 126 -107 134 -15 12 -11 17 37
41 29 16 58 28 65 29 7 0 24 -37 38 -82z"/>
</g>
</svg>
