<?xml version="1.0" standalone="no"?>
<!DOCTYPE svg PUBLIC "-//W3C//DTD SVG 20010904//EN"
 "http://www.w3.org/TR/2001/REC-SVG-20010904/DTD/svg10.dtd">
<svg version="1.0" xmlns="http://www.w3.org/2000/svg"
 width="1024.000000pt" height="1024.000000pt" viewBox="0 0 1024.000000 1024.000000"
 preserveAspectRatio="xMidYMid meet">
<metadata>
Created by potrace 1.15, written by Peter Selinger 2001-2017
</metadata>
<g transform="translate(0.000000,1024.000000) scale(0.100000,-0.100000)"
fill="#000000" stroke="none">
<path d="M5102 7746 c-14 -68 -89 -220 -154 -309 -157 -217 -376 -427 -722
-692 -71 -54 -309 -224 -386 -275 -254 -170 -621 -391 -955 -576 -123 -68
-269 -145 -297 -156 -30 -13 -32 -20 -49 -174 -17 -154 -6 -521 21 -688 91
-581 342 -1088 748 -1516 108 -114 148 -121 51 -9 -35 41 -80 94 -99 119 -19
25 -37 47 -40 50 -3 3 -34 47 -68 98 -125 187 -215 381 -264 570 -42 163 -50
373 -19 509 28 123 55 193 109 286 89 150 125 186 294 286 84 50 158 95 165
101 7 5 14 10 17 10 3 0 38 20 78 44 40 23 152 89 248 146 96 57 191 113 210
125 19 12 114 68 210 125 96 57 218 129 270 160 52 31 196 117 320 190 124 73
246 146 273 161 26 16 51 29 56 29 9 0 62 -30 151 -85 19 -12 103 -62 185
-110 227 -134 410 -242 515 -305 164 -99 594 -354 618 -367 23 -12 77 -45 384
-227 134 -80 152 -94 207 -164 78 -97 154 -251 183 -367 29 -117 31 -345 5
-477 -41 -205 -132 -415 -270 -623 -54 -80 -142 -202 -157 -215 -17 -16 -120
-139 -120 -144 0 -31 122 84 236 224 16 19 37 44 46 54 10 11 56 74 102 140
261 375 412 761 482 1231 24 164 30 505 10 664 -9 74 -18 135 -19 136 -205 98
-593 316 -922 518 -177 109 -345 216 -355 227 -3 3 -39 27 -80 54 -157 103
-432 312 -574 436 -133 116 -249 228 -325 315 -29 33 -61 69 -70 80 -78 87
-190 287 -213 380 -17 71 -24 73 -36 11z"/>
<path d="M5110 5920 c0 -38 -62 -161 -120 -237 -87 -114 -240 -265 -380 -373
-25 -19 -47 -37 -50 -41 -37 -44 -569 -391 -770 -501 -25 -14 -101 -56 -170
-94 -69 -38 -137 -75 -152 -83 -40 -20 -52 -111 -45 -331 11 -354 101 -646
292 -945 71 -111 285 -359 285 -331 0 5 -22 34 -48 65 -124 144 -222 311 -279
477 -37 107 -38 112 -38 259 1 146 1 152 34 233 18 45 56 114 84 152 45 60 66
78 157 131 58 34 198 117 311 185 113 67 221 131 240 142 44 25 323 190 457
270 56 34 107 62 112 62 6 0 10 4 10 8 0 8 63 42 79 42 4 0 68 -35 142 -79 74
-43 177 -104 229 -134 52 -31 100 -61 107 -67 7 -5 14 -10 17 -10 2 0 118 -68
257 -151 140 -83 268 -159 284 -168 148 -82 280 -168 303 -200 15 -20 30 -38
33 -41 17 -15 61 -104 83 -170 32 -97 41 -195 27 -296 -13 -95 -58 -239 -100
-321 -46 -91 -148 -241 -213 -316 -33 -37 -58 -71 -54 -74 6 -7 94 84 170 177
210 256 351 581 397 910 14 103 17 327 6 430 l-8 75 -117 63 c-737 393 -1256
777 -1464 1082 -49 72 -88 151 -88 177 0 10 -5 25 -10 33 -8 12 -10 10 -10
-10z"/>
<path d="M2160 5038 c-130 -80 -480 -254 -625 -311 -171 -67 -313 -107 -459
-128 -90 -13 -330 -13 -375 1 -37 10 -57 5 -25 -7 37 -13 130 -88 198 -157 82
-86 184 -221 254 -337 50 -84 71 -126 187 -379 32 -69 83 -177 113 -240 30
-63 67 -142 82 -175 15 -33 43 -94 63 -135 19 -41 85 -180 146 -309 61 -129
115 -239 120 -244 10 -10 612 -139 619 -133 2 2 -22 18 -54 36 -195 112 -332
288 -514 664 -133 274 -270 614 -355 882 l-32 101 131 81 c199 121 425 244
584 318 45 21 82 43 82 50 0 6 -11 49 -24 95 -22 77 -56 220 -74 311 l-7 38
-35 -22z"/>
<path d="M8045 5013 c-4 -26 -25 -117 -47 -203 -22 -85 -42 -166 -45 -180 -3
-23 7 -30 169 -109 95 -46 210 -105 256 -132 45 -27 87 -49 91 -49 5 0 11 -3
13 -7 2 -5 19 -16 38 -27 19 -10 78 -46 131 -79 l96 -60 -32 -101 c-91 -286
-225 -615 -365 -901 -178 -364 -319 -541 -523 -657 -61 -34 -76 -36 203 22
107 23 233 48 280 57 47 8 91 21 98 27 10 10 131 259 262 541 42 91 102 218
157 335 28 58 74 157 103 220 138 302 194 405 308 564 101 140 300 326 351
326 8 0 12 2 9 5 -3 3 -27 1 -54 -5 -63 -14 -291 -14 -380 0 -124 20 -277 61
-399 107 -165 63 -515 234 -676 332 l-37 22 -7 -48z"/>
<path d="M5107 4623 c-29 -177 -442 -515 -989 -807 l-107 -57 -7 -56 c-18
-144 7 -356 62 -528 37 -114 145 -292 238 -392 21 -23 45 -52 53 -63 8 -11 19
-17 25 -14 5 4 -5 22 -24 43 -83 87 -160 225 -193 341 -54 193 8 383 154 472
35 21 67 38 72 38 5 0 9 5 9 10 0 6 4 10 10 10 5 0 42 20 82 43 40 24 145 87
233 139 88 52 210 125 272 161 62 37 117 67 122 67 6 0 115 -62 243 -138 128
-76 314 -186 413 -244 99 -58 194 -119 212 -137 18 -18 47 -62 65 -99 32 -64
33 -72 33 -182 0 -94 -4 -127 -23 -182 -28 -81 -104 -210 -167 -284 -26 -30
-42 -54 -36 -54 5 0 33 26 60 58 160 181 246 352 297 592 21 101 26 352 6 386
-6 12 -46 40 -89 63 -359 190 -662 398 -838 575 -96 96 -135 155 -173 256 -8
23 -9 22 -15 -17z"/>
<path d="M2421 4149 c-45 -27 -196 -77 -288 -95 -41 -8 -114 -14 -163 -14
l-88 0 63 -63 c103 -103 164 -205 333 -557 204 -425 231 -478 248 -484 23 -9
367 -86 384 -86 6 0 -10 17 -37 39 -113 89 -217 248 -377 572 -130 265 -159
332 -149 347 4 7 64 43 133 79 69 36 127 67 129 69 2 2 -148 214 -153 214 0 0
-16 -9 -35 -21z"/>
<path d="M7775 4147 c-9 -12 -43 -59 -76 -105 -34 -46 -59 -85 -57 -86 5 -4
180 -97 221 -118 21 -10 40 -25 43 -32 5 -14 -41 -120 -159 -361 -147 -299
-265 -475 -381 -565 -21 -16 -33 -30 -25 -30 8 0 95 18 194 41 172 39 225 58
225 79 0 10 30 74 199 423 50 104 91 190 91 192 0 3 28 55 62 117 69 128 157
249 219 302 l43 36 -97 0 c-137 0 -313 42 -437 105 l-49 25 -16 -23z"/>
</g>
</svg>
