<?xml version="1.0" standalone="no"?>
<!DOCTYPE svg PUBLIC "-//W3C//DTD SVG 20010904//EN"
 "http://www.w3.org/TR/2001/REC-SVG-20010904/DTD/svg10.dtd">
<svg version="1.0" xmlns="http://www.w3.org/2000/svg"
 width="512.000000pt" height="512.000000pt" viewBox="0 0 512.000000 512.000000"
 preserveAspectRatio="xMidYMid meet">
<metadata>
Created by potrace 1.15, written by Peter Selinger 2001-2017
</metadata>
<g transform="translate(0.000000,512.000000) scale(0.100000,-0.100000)"
fill="#000000" stroke="none">
<path d="M3200 4035 c-294 -266 -536 -488 -538 -494 -2 -5 15 -41 37 -78 45
-76 101 -211 101 -242 0 -26 5 -26 41 -1 l28 21 7 -27 c5 -21 2 -31 -14 -44
-18 -15 -19 -22 -11 -56 5 -21 12 -103 16 -182 5 -110 9 -142 19 -138 10 4 10
-2 2 -25 -5 -16 -7 -40 -4 -52 4 -16 -1 -28 -14 -40 -11 -9 -20 -25 -20 -36 0
-11 -16 -73 -35 -140 -19 -66 -35 -122 -35 -125 0 -3 21 1 48 9 26 8 48 15 49
15 2 0 -6 -15 -17 -32 -11 -18 -20 -40 -20 -49 0 -10 -19 -21 -55 -33 -54 -17
-56 -19 -95 -94 -21 -42 -55 -105 -74 -139 -34 -59 -35 -63 -15 -63 15 0 19
-4 15 -16 -3 -9 -6 -24 -6 -34 0 -14 -10 -20 -42 -25 -36 -5 -48 -14 -73 -48
-16 -23 -63 -81 -102 -129 -40 -48 -73 -90 -73 -94 0 -3 12 -3 28 1 l27 7 -29
-31 c-18 -18 -40 -31 -54 -31 -15 0 -43 -17 -71 -42 -165 -150 -194 -180 -182
-187 14 -9 -28 -41 -55 -41 -27 0 -267 -182 -252 -191 19 -12 -21 -40 -49 -34
-16 4 -60 -16 -145 -66 -68 -39 -124 -72 -126 -74 -2 -2 11 -13 28 -25 l30
-22 66 31 c73 34 87 38 58 16 -35 -26 4 -16 138 38 154 60 161 63 129 44 l-23
-14 23 -6 c25 -7 239 33 239 44 0 19 -40 17 -112 -6 -45 -14 -83 -24 -85 -22
-2 2 55 25 126 51 93 34 135 45 147 38 13 -7 6 -12 -32 -21 -44 -11 -47 -14
-31 -26 20 -14 21 -14 392 90 283 79 404 118 654 206 124 45 241 86 259 92 17
6 32 14 32 17 0 4 -43 13 -95 20 l-94 12 -298 -117 c-164 -65 -302 -124 -308
-130 -5 -6 -26 -12 -45 -12 l-35 0 30 12 c17 7 126 49 243 95 130 51 212 88
212 97 0 7 11 13 27 13 26 0 430 187 698 324 l140 71 -143 3 -142 3 -203 -120
c-111 -65 -251 -146 -312 -179 -60 -33 -121 -70 -134 -81 -13 -12 -33 -21 -43
-21 -10 0 -89 -35 -176 -79 -147 -73 -264 -128 -356 -165 -31 -13 -36 -19 -27
-30 9 -11 7 -15 -9 -19 -11 -3 -20 -1 -20 4 0 12 -37 11 -62 -2 -11 -6 -22 -9
-24 -7 -2 3 63 33 144 68 222 96 358 162 344 167 -22 8 -2 23 33 23 23 0 85
28 202 91 329 178 403 222 401 238 -2 11 7 17 30 19 48 5 872 557 872 584 0 6
-10 8 -22 5 -13 -3 -130 -25 -261 -48 l-238 -42 -147 -126 c-160 -136 -370
-307 -415 -336 -16 -10 -33 -28 -37 -41 -5 -13 -19 -23 -37 -26 -15 -2 -129
-72 -251 -154 -123 -82 -261 -169 -306 -194 -45 -25 -160 -87 -255 -139 -152
-82 -171 -96 -151 -103 13 -5 32 -6 44 -3 12 2 6 -2 -13 -11 -25 -11 -36 -12
-41 -4 -12 20 -52 15 -113 -14 -32 -14 -56 -22 -53 -17 3 5 -7 14 -23 20 -26
11 -40 6 -185 -69 -86 -45 -156 -79 -156 -76 0 3 26 19 58 35 31 16 68 40 81
54 13 14 29 23 36 21 28 -11 311 160 350 211 17 23 31 32 43 28 19 -5 112 59
269 186 63 51 78 67 65 72 -14 5 -14 7 6 13 13 4 22 15 22 27 0 15 7 19 36 19
33 0 49 13 202 166 l167 166 -45 -7 -45 -6 40 41 c29 29 52 42 80 47 22 3 46
11 54 17 42 33 307 383 298 393 -3 3 -27 -2 -53 -11 -26 -9 -49 -16 -50 -16
-2 0 6 22 18 50 20 48 22 50 91 72 58 19 75 30 100 63 35 48 222 424 214 431
-3 3 -19 -2 -35 -10 l-31 -16 21 46 c11 25 18 57 16 69 -4 19 3 27 43 46 48
22 49 24 73 103 52 168 101 436 94 506 l-3 30 -36 -24 c-33 -23 -37 -23 -42
-8 -3 9 -8 24 -11 33 -5 12 7 25 45 50 l52 33 -6 125 c-3 69 -13 164 -22 211
-23 115 -73 270 -88 269 -7 0 -253 -218 -547 -484z"/>
<path d="M4365 3485 c-286 -140 -523 -260 -527 -267 -5 -7 -29 -62 -54 -122
-56 -134 -112 -246 -170 -342 -24 -40 -44 -75 -44 -79 0 -3 9 -3 20 0 11 3 20
3 20 -2 -1 -18 -28 -42 -54 -49 -19 -4 -42 -28 -78 -83 -76 -113 -213 -296
-261 -348 l-42 -46 37 5 c35 4 36 3 22 -13 -8 -9 -31 -20 -50 -24 -29 -5 -72
-43 -237 -208 -111 -111 -201 -209 -202 -217 0 -8 -11 -16 -23 -18 -13 -2 -93
-60 -178 -128 -85 -68 -159 -124 -165 -124 -6 0 -9 -7 -5 -15 4 -10 -3 -17
-22 -21 -35 -9 -373 -224 -367 -235 3 -4 19 -10 35 -14 25 -6 62 10 228 95
210 109 239 126 234 138 -2 4 11 10 27 13 17 4 117 62 224 129 221 140 248
159 230 167 -25 10 -12 23 23 23 31 0 61 19 217 142 226 177 376 299 402 328
l20 23 -32 -5 c-31 -4 -32 -4 -17 13 9 10 36 21 61 25 41 6 57 20 242 203 199
198 391 405 391 421 0 6 -11 5 -26 0 -23 -9 -25 -8 -18 12 8 29 3 25 62 46 47
16 58 26 157 157 192 252 402 553 449 643 12 24 13 32 4 31 -7 0 -247 -115
-533 -254z"/>
<path d="M1137 909 c-64 -7 -88 -19 -39 -19 18 0 32 -5 32 -11 0 -7 13 -9 38
-5 98 17 99 17 47 -9 -27 -13 -51 -21 -53 -16 -4 13 -105 -12 -110 -28 -5 -14
11 -13 65 5 15 5 15 4 3 -5 -13 -9 -13 -12 2 -27 16 -17 22 -16 105 16 185 70
194 76 148 100 -22 12 -30 11 -60 -3 -43 -21 -55 -22 -30 -3 16 12 12 13 -36
12 -30 0 -80 -4 -112 -7z"/>
<path d="M997 775 c-25 -9 -35 -10 -31 -3 5 8 1 9 -10 5 -10 -4 -20 -7 -22 -7
-3 0 -3 -4 0 -9 3 -5 -3 -11 -14 -14 -13 -3 -18 -1 -14 5 5 7 -3 9 -22 5 -16
-3 -84 -16 -151 -28 -68 -13 -123 -27 -123 -31 0 -11 1 -10 100 7 105 19 110
19 110 0 0 -8 5 -15 12 -15 14 0 231 60 237 66 5 5 -20 34 -28 33 -3 0 -23 -7
-44 -14z"/>
</g>
</svg>
