<?xml version="1.0" standalone="no"?>
<!DOCTYPE svg PUBLIC "-//W3C//DTD SVG 20010904//EN"
 "http://www.w3.org/TR/2001/REC-SVG-20010904/DTD/svg10.dtd">
<svg version="1.0" xmlns="http://www.w3.org/2000/svg"
 width="700.000000pt" height="700.000000pt" viewBox="0 0 700.000000 700.000000"
 preserveAspectRatio="xMidYMid meet">
<metadata>
Created by potrace 1.11, written by Peter Selinger 2001-2013
</metadata>
<g transform="translate(0.000000,700.000000) scale(0.100000,-0.100000)"
fill="#000000" stroke="none">
<path d="M3480 5275 c-44 -156 -227 -372 -507 -597 -269 -217 -711 -496 -1173
-739 -41 -22 -46 -29 -57 -79 -17 -78 -10 -437 11 -555 9 -49 22 -108 28 -130
5 -22 11 -44 12 -50 35 -177 209 -525 343 -684 15 -18 36 -43 46 -55 60 -71
131 -146 139 -146 10 0 -23 51 -55 85 -46 49 -143 194 -189 281 -97 184 -134
337 -125 509 6 117 31 200 88 298 48 81 80 115 152 161 47 30 889 532 987 588
19 11 94 55 165 97 72 43 137 80 146 83 9 4 32 -3 50 -15 19 -12 43 -26 54
-33 11 -6 117 -69 235 -139 221 -131 359 -213 750 -445 124 -73 243 -145 264
-161 74 -54 162 -204 190 -327 19 -83 15 -277 -8 -357 -28 -94 -52 -158 -95
-242 -43 -86 -165 -265 -224 -328 -34 -37 -45 -55 -32 -55 14 0 143 143 204
225 116 156 188 282 256 451 29 73 70 200 80 252 1 9 8 35 13 57 6 22 13 58
16 80 3 22 10 69 15 105 15 106 5 470 -14 499 -3 5 -42 28 -88 52 -328 168
-899 525 -1072 670 -11 9 -56 46 -100 80 -100 79 -298 276 -352 350 -46 62
-123 208 -123 232 0 35 -18 24 -30 -18z"/>
<path d="M3486 4026 c-10 -52 -94 -171 -183 -258 -117 -115 -208 -187 -371
-294 -81 -53 -163 -107 -182 -120 -19 -12 -107 -63 -195 -112 -230 -130 -210
-104 -211 -269 -2 -182 11 -274 57 -416 54 -164 151 -326 284 -472 25 -27 45
-45 45 -39 0 6 -9 19 -20 29 -28 25 -130 180 -159 240 -56 119 -67 165 -65
281 1 95 3 107 36 175 19 41 49 88 66 106 17 17 109 77 204 134 95 56 200 119
233 139 33 20 65 39 70 41 12 5 296 173 347 205 60 38 -6 70 598 -288 340
-201 346 -205 384 -250 19 -22 47 -74 62 -116 66 -179 13 -385 -156 -612 l-71
-95 67 70 c97 101 202 269 250 397 25 70 62 202 69 254 9 61 13 262 7 327 -3
33 -9 50 -21 55 -24 9 -291 160 -401 227 -275 166 -522 364 -632 505 -44 56
-87 131 -93 160 -7 35 -12 34 -19 -4z"/>
<path d="M1455 3433 c-72 -43 -356 -182 -434 -211 -69 -27 -198 -62 -276 -77
-42 -8 -240 -8 -265 0 -30 9 -25 1 18 -28 57 -40 102 -85 170 -170 99 -125
127 -178 342 -642 15 -33 51 -109 80 -170 29 -60 77 -162 107 -225 29 -63 55
-116 57 -118 5 -4 101 -29 141 -36 17 -3 81 -17 144 -31 63 -14 119 -25 125
-25 6 0 -12 15 -40 34 -110 74 -191 176 -292 366 -88 165 -200 432 -268 640
-33 99 -34 105 -17 118 46 34 245 149 370 213 76 39 142 74 146 79 5 4 -5 63
-22 131 -17 68 -33 135 -36 148 -2 13 -6 25 -7 26 -2 1 -21 -9 -43 -22z"/>
<path d="M5499 3438 c-1 -20 -7 -48 -24 -118 -33 -130 -37 -151 -32 -164 3 -7
67 -45 144 -83 154 -79 202 -104 217 -116 6 -4 48 -30 93 -58 l82 -49 -16 -53
c-27 -92 -113 -318 -175 -457 -153 -347 -262 -510 -402 -601 -33 -21 -56 -39
-50 -39 5 0 73 13 149 29 77 16 156 32 176 35 89 14 98 26 289 441 208 451
276 586 342 682 59 85 153 187 214 229 l40 29 -130 -3 c-149 -4 -252 15 -416
75 -92 34 -406 185 -452 217 -27 19 -48 21 -49 4z"/>
<path d="M3490 3167 c-1 -105 -279 -339 -636 -536 l-111 -62 -6 -47 c-14 -119
15 -295 68 -411 29 -62 100 -169 150 -225 47 -53 44 -35 -4 28 -79 102 -127
240 -115 328 8 54 36 118 65 150 18 19 301 198 313 198 2 0 63 36 136 80 73
44 140 80 148 80 14 0 380 -211 522 -301 111 -70 141 -127 137 -257 -3 -101
-27 -162 -103 -268 -25 -35 -43 -64 -40 -64 3 0 34 35 67 78 121 151 178 318
176 512 l-2 115 -75 44 c-238 140 -291 173 -386 244 -134 99 -230 196 -271
272 -18 33 -33 52 -33 42z"/>
<path d="M1630 2827 c-77 -34 -172 -57 -255 -62 -44 -2 -81 -5 -83 -5 -2 0 15
-19 38 -42 75 -79 135 -186 334 -600 26 -54 55 -102 65 -107 20 -11 242 -63
247 -58 2 2 -21 29 -51 61 -30 31 -76 94 -104 139 -54 91 -171 322 -201 397
l-19 49 27 19 c15 11 50 31 77 45 84 44 82 39 44 93 -19 27 -43 58 -54 70
l-20 21 -45 -20z"/>
<path d="M5275 2780 c-29 -42 -45 -74 -39 -79 5 -5 42 -26 83 -47 40 -21 76
-44 78 -51 7 -18 -7 -51 -98 -236 -93 -187 -167 -304 -234 -370 -27 -26 -45
-47 -39 -47 18 0 219 48 247 59 15 6 31 21 36 33 13 33 144 307 198 413 58
115 119 210 170 263 22 23 35 42 29 42 -71 4 -129 9 -166 15 -51 8 -180 52
-194 66 -17 15 -21 11 -71 -61z"/>
</g>
</svg>
