<?xml version="1.0" encoding="UTF-8" standalone="no"?>
<svg
   xmlns:dc="http://purl.org/dc/elements/1.1/"
   xmlns:cc="http://creativecommons.org/ns#"
   xmlns:rdf="http://www.w3.org/1999/02/22-rdf-syntax-ns#"
   xmlns:svg="http://www.w3.org/2000/svg"
   xmlns="http://www.w3.org/2000/svg"
   viewBox="0 0 64 64"
   height="64"
   width="64"
   id="svg68"
   version="1.1">
  <metadata
     id="metadata74">
    <rdf:RDF>
      <cc:Work
         rdf:about="">
        <dc:format>image/svg+xml</dc:format>
        <dc:type
           rdf:resource="http://purl.org/dc/dcmitype/StillImage" />
        <dc:title></dc:title>
      </cc:Work>
    </rdf:RDF>
  </metadata>
  <defs
     id="defs72" />
  <path
     id="path78"
     d="m 28.499597,55.859136 c -0.647995,-1.048472 -1.138612,-2.947212 -3.056005,-11.827063 -0.363806,-1.684862 -1.892049,-3.152111 -4.687068,-4.5 -2.280988,-1.1 -5.208143,-3.575 -6.504788,-5.5 -2.169027,-3.220138 -2.313459,-4.212108 -1.806295,-12.405724 0.421378,-6.807661 0.198255,-9.588323 -0.947101,-11.80318 L 10,6.925711 12.805557,8.376513 c 1.543058,0.797942 3.624718,2.355956 4.625911,3.462255 1.687747,1.864927 1.705786,2.232994 0.247641,5.052718 -3.322817,6.425579 -0.768553,12.90733 6.240435,15.835853 4.220371,1.763372 5.148709,0.820223 5.171625,-5.254136 0.0084,-2.232379 0.690317,-4.932379 1.515323,-6 1.484845,-1.921507 1.515173,-1.921507 3.000018,0 0.825006,1.067621 1.506901,3.767621 1.515323,6 0.02292,6.074359 0.951254,7.017508 5.171625,5.254136 7.008988,-2.928523 9.563254,-9.410274 6.240433,-15.835853 -1.458139,-2.819724 -1.440099,-3.187791 0.247642,-5.052718 1.001196,-1.1063 3.082859,-2.664313 4.625909,-3.462255 L 54.213,6.925711 52.714661,9.823169 c -1.145358,2.214857 -1.368479,4.995519 -0.947096,11.80318 0.507163,8.193616 0.362732,9.185586 -1.806302,12.405724 -1.296638,1.925 -4.223797,4.4 -6.504785,5.5 -2.795019,1.347889 -4.323262,2.815138 -4.687068,4.5 -1.917393,8.879851 -2.40801,10.778591 -3.056005,11.827063 -0.94013,1.521152 -6.273678,1.521152 -7.213808,0 z M 33.60651,47.94874 c 0,-4.148148 -0.351284,-5.416667 -1.500009,-5.416667 -1.575246,0 -2.688303,7.263971 -1.562572,10.197562 1.268249,3.304982 3.062581,0.503909 3.062581,-4.780895 z"
     style="fill:#000000;stroke-width:1.00000322" />
</svg>
