<?xml version="1.0" standalone="no"?>
<!DOCTYPE svg PUBLIC "-//W3C//DTD SVG 20010904//EN"
 "http://www.w3.org/TR/2001/REC-SVG-20010904/DTD/svg10.dtd">
<svg version="1.0" xmlns="http://www.w3.org/2000/svg"
 width="670.000000pt" height="498.000000pt" viewBox="0 0 670.000000 498.000000"
 preserveAspectRatio="xMidYMid meet">
<metadata>
Created by potrace 1.15, written by Peter Selinger 2001-2017
</metadata>
<g transform="translate(0.000000,498.000000) scale(0.100000,-0.100000)"
fill="#000000" stroke="none">
<path d="M3130 3093 l0 -1678 -163 -95 c-364 -213 -671 -349 -892 -395 -299
-63 -612 5 -894 192 -159 106 -297 259 -345 383 -30 75 -32 182 -7 274 27 98
74 214 108 263 34 50 32 74 -8 127 -57 75 -52 77 -184 -71 -113 -126 -189
-241 -226 -343 -68 -187 -27 -404 120 -627 150 -226 331 -384 598 -521 386
-197 848 -326 1348 -374 180 -18 1350 -18 1530 0 500 48 962 177 1348 374 267
137 448 295 598 521 103 157 150 296 151 447 0 82 -4 107 -31 180 -37 102
-113 217 -226 343 -132 148 -127 146 -184 71 -40 -53 -42 -77 -8 -127 34 -49
81 -165 108 -263 25 -92 23 -199 -7 -274 -66 -170 -280 -369 -515 -479 -397
-186 -734 -158 -1254 103 -110 56 -273 144 -362 196 l-163 95 0 1678 0 1677
-220 0 -220 0 0 -1677z"/>
<path d="M2780 4323 c0 -4 -106 -567 -236 -1251 -129 -684 -233 -1249 -231
-1256 8 -21 589 -360 625 -364 l32 -4 0 1441 0 1441 -95 0 c-52 0 -95 -3 -95
-7z"/>
<path d="M3730 2889 l0 -1441 33 4 c35 4 616 343 624 364 2 7 -102 572 -231
1256 -130 684 -236 1247 -236 1251 0 4 -43 7 -95 7 l-95 0 0 -1441z"/>
<path d="M1848 3815 l-121 -80 6 -100 c4 -55 14 -230 23 -390 8 -159 16 -290
17 -291 1 0 130 -80 287 -177 223 -139 287 -174 296 -164 12 13 60 153 94 277
11 41 25 119 31 174 8 82 8 101 -4 115 -14 16 -306 491 -320 521 -4 8 -33 55
-65 104 -76 119 -82 119 -244 11z"/>
<path d="M4633 3840 c-19 -30 -48 -74 -64 -98 -16 -23 -29 -45 -29 -47 0 -7
-302 -499 -317 -516 -12 -14 -12 -33 -4 -115 6 -55 20 -133 31 -174 34 -124
82 -264 94 -277 9 -10 73 25 296 164 157 97 286 177 287 177 1 1 9 132 17 291
9 160 19 335 23 390 l6 100 -118 79 c-86 57 -128 79 -153 80 -32 1 -38 -3 -69
-54z"/>
<path d="M960 3402 c-8 -4 -94 -88 -190 -187 -96 -99 -180 -184 -187 -190 -9
-7 16 -63 105 -225 64 -118 254 -471 422 -785 l305 -570 78 -9 c66 -8 79 -7
90 6 10 14 440 264 604 352 49 27 52 30 61 85 45 260 106 641 102 644 -18 14
-1371 887 -1373 886 -1 0 -9 -4 -17 -7z"/>
<path d="M5570 3314 c-80 -52 -386 -251 -680 -441 -294 -191 -537 -348 -540
-350 -4 -3 57 -384 102 -644 9 -55 12 -58 61 -85 164 -88 594 -338 604 -352
11 -13 24 -14 90 -6 l78 9 305 570 c168 314 358 667 422 785 l116 214 -174
176 c-95 96 -179 183 -186 192 -28 35 -50 28 -198 -68z"/>
</g>
</svg>
